# xmcd
#
# Track frame offsets: 
#        150
#        14087
#        57130
#        67925
#        80350
#        91400
#        103485
#        119070
#        132185
#        146207
#        168927
#        182300
#
# Disc length: 2601 seconds
#
# Revision: 0
# Processed by: cddbd v1.5.2PL0 Copyright (c) Steve Scherf et al.
# Submitted via: ExactAudioCopy v0.99pb4
#
DISCID=a70a270c
DTITLE=Various Artist - Town and Country
DYEAR=1900
DGENRE=Blues
TTITLE0=Big Bill Broonzy - Worrying You Off My Mind
TTITLE1=Son House - Levee Camp Moan
TTITLE2=Muddy Waters - I Want To Be Loved
TTITLE3=Champion Jack Dupree - Gamblin' Man Blues
TTITLE4=Screamin' Jay Hawkins - I Put A Spell On You
TTITLE5=Brownie McGhee - Let Me Tell You 'Bout My Baby
TTITLE6=Jimmy Rushing - JImmy's Blues
TTITLE7=Titus Turner - Got So Much Trouble
TTITLE8=Blind Boy Fuller - Rag, Mama, Rag
TTITLE9=Allman Brothers - Mean Woman Blues
TTITLE10=Leadbelly - Packin' Trunk
TTITLE11=Big Bill Broonzy - Going Back To Arkansas
EXTD=
EXTT0=
EXTT1=
EXTT2=
EXTT3=
EXTT4=
EXTT5=
EXTT6=
EXTT7=
EXTT8=
EXTT9=
EXTT10=
EXTT11=
PLAYORDER=
